<?xml version="1.0" standalone="no"?>
<!DOCTYPE svg PUBLIC "-//W3C//DTD SVG 20010904//EN"
 "http://www.w3.org/TR/2001/REC-SVG-20010904/DTD/svg10.dtd">
<svg version="1.0" xmlns="http://www.w3.org/2000/svg"
 width="1619.000000pt" height="1619.000000pt" viewBox="0 0 1619.000000 1619.000000"
 preserveAspectRatio="xMidYMid meet">
<g transform="translate(0.000000,1619.000000) scale(0.100000,-0.100000)"
fill="#000000" stroke="none">
<path d="M1003 11458 c3 -4874 3 -4828 42 -5178 234 -2079 1378 -3944 3135
-5105 933 -618 2009 -1007 3120 -1129 286 -32 447 -40 785 -40 660 0 1177 65
1815 230 894 231 1775 663 2516 1235 1373 1060 2304 2562 2633 4249 69 356
104 670 121 1080 6 153 10 1954 10 4818 l0 4572 -7090 0 -7090 0 3 -4732z
m6400 3607 c99 -201 131 -448 82 -641 -8 -32 -33 -95 -55 -140 -107 -219 -379
-393 -697 -445 l-72 -12 56 -61 c219 -241 327 -534 295 -801 -13 -103 -50
-232 -90 -310 -112 -224 -317 -398 -557 -475 -54 -17 -102 -24 -210 -27 -159
-6 -255 11 -388 67 -106 46 -255 149 -330 230 -59 64 -128 172 -117 184 3 2
32 -2 65 -10 79 -18 204 -18 285 2 175 41 343 174 419 334 97 202 92 391 -16
604 -172 340 -593 586 -1113 650 -133 16 -388 32 -380 23 3 -3 50 -17 105 -31
120 -32 296 -115 382 -180 216 -163 354 -429 353 -680 0 -64 -23 -172 -48
-229 -18 -41 -86 -127 -101 -127 -3 0 -5 38 -3 85 11 285 -207 571 -545 713
-138 59 -261 83 -443 89 -448 15 -813 -130 -1130 -447 -78 -77 -209 -237 -244
-297 -4 -7 22 1 58 17 405 181 862 110 1181 -183 148 -136 257 -315 312 -514
26 -90 28 -112 27 -278 0 -170 -1 -184 -28 -260 -55 -160 -137 -263 -250 -316
-310 -145 -656 71 -656 411 0 319 312 538 610 427 30 -11 66 -27 80 -36 l25
-15 -25 28 c-72 81 -235 185 -356 226 -148 52 -341 65 -492 34 -352 -72 -636
-354 -715 -709 -55 -245 -12 -573 107 -821 88 -183 183 -308 335 -441 277
-242 680 -411 1121 -469 157 -20 467 -15 610 11 139 25 310 79 429 136 108 51
267 158 254 169 -5 4 -32 16 -60 28 -157 63 -289 206 -344 374 -20 62 -24 92
-24 203 1 115 4 138 27 197 73 191 219 333 403 391 57 18 92 22 195 21 291 -1
518 -123 682 -363 315 -462 322 -1304 18 -1983 -146 -326 -336 -594 -630 -889
-371 -373 -768 -656 -1575 -1124 -797 -463 -1050 -641 -1227 -864 -112 -140
-160 -267 -160 -415 l0 -91 -24 30 c-37 45 -102 182 -121 255 -24 92 -21 252
5 360 56 230 200 472 435 732 188 208 481 450 713 589 38 23 61 38 50 35 -56
-19 -203 -36 -310 -36 -372 0 -752 149 -969 380 -116 123 -170 246 -170 390 0
42 3 85 6 95 5 16 -4 27 -43 52 -200 131 -275 477 -155 714 23 45 93 139 104
139 5 0 14 -15 22 -32 27 -68 114 -213 183 -306 197 -265 490 -486 821 -619
309 -124 582 -176 930 -175 391 1 716 75 1040 237 401 201 694 512 838 890 58
152 56 160 -15 65 -325 -439 -863 -672 -1493 -646 -564 23 -1070 210 -1509
560 -753 600 -1127 1569 -981 2549 115 773 526 1432 1151 1843 254 168 562
292 874 353 255 50 442 57 912 37 418 -18 887 -21 1063 -6 401 35 710 130 909
281 85 65 174 171 222 266 21 40 39 72 40 70 2 -1 18 -34 37 -72z m1459 -8
c147 -284 453 -448 978 -522 186 -27 703 -31 1209 -10 453 19 653 14 884 -20
286 -43 542 -134 772 -275 136 -83 272 -197 453 -377 100 -101 182 -182 182
-180 0 2 -12 37 -26 78 -30 89 -78 284 -95 394 -18 114 -16 343 5 435 39 176
154 338 284 402 62 31 73 33 172 33 89 0 112 -4 150 -22 63 -31 128 -98 159
-163 34 -73 36 -191 4 -262 -29 -63 -96 -134 -158 -165 -57 -30 -167 -42 -227
-25 l-37 10 -7 -42 c-10 -62 -7 -349 6 -451 29 -240 83 -449 250 -980 107
-341 143 -481 170 -665 126 -862 -172 -1736 -796 -2340 -468 -453 -1047 -701
-1699 -726 -425 -17 -802 80 -1115 287 -122 81 -334 291 -410 407 -30 45 -56
78 -58 73 -6 -17 70 -206 129 -321 274 -531 810 -885 1494 -986 227 -33 547
-29 785 12 303 52 629 176 865 331 271 178 485 413 621 680 l52 103 16 -68
c39 -175 47 -369 21 -514 -71 -404 -364 -743 -845 -979 -259 -127 -572 -212
-787 -213 -61 -1 -111 -1 -110 -2 624 -395 797 -522 1037 -763 197 -199 306
-365 355 -541 40 -144 15 -368 -57 -503 -31 -58 -118 -157 -138 -157 -5 0 -7
27 -4 62 11 125 -43 287 -139 413 -64 85 -226 239 -338 323 -138 102 -350 239
-624 402 -132 79 -346 206 -475 283 -673 401 -1136 753 -1462 1111 -484 531
-725 1089 -769 1774 -41 660 215 1181 651 1326 81 27 201 46 283 46 142 -1
313 -69 414 -167 259 -250 265 -642 13 -893 -72 -73 -193 -150 -235 -150 -30
0 -10 -24 61 -74 147 -103 383 -197 597 -237 140 -26 440 -37 583 -20 476 55
899 251 1189 552 203 210 321 440 362 704 19 125 12 307 -16 420 -107 435
-472 735 -891 735 -404 -1 -721 -347 -672 -733 17 -139 70 -277 151 -397 17
-25 31 -48 31 -52 0 -13 -125 24 -181 53 -73 39 -160 125 -206 204 -19 32 -49
100 -66 150 -31 87 -32 95 -31 255 0 146 3 176 27 263 54 200 158 378 307 521
128 124 244 195 411 254 305 108 659 71 940 -98 45 -28 84 -48 86 -47 2 2 -26
49 -63 103 -181 271 -416 483 -679 614 -209 103 -345 138 -576 147 -99 4 -187
1 -240 -6 -438 -62 -774 -315 -859 -647 -11 -43 -20 -106 -20 -141 0 -34 -4
-63 -9 -63 -22 0 -66 49 -91 103 -76 159 -61 396 36 591 125 249 377 430 719
516 30 7 1 8 -115 5 -734 -22 -1264 -333 -1402 -822 -92 -326 88 -658 419
-774 82 -29 237 -36 327 -15 38 9 70 15 72 13 2 -2 -8 -28 -23 -58 -38 -76
-186 -222 -293 -288 -96 -58 -213 -106 -310 -127 -98 -21 -278 -18 -377 6
-268 64 -492 253 -613 514 -63 135 -75 199 -75 381 0 140 3 169 23 235 55 175
131 310 254 450 l66 75 -91 18 c-164 33 -327 98 -446 180 -66 45 -171 155
-209 220 -102 171 -124 403 -62 642 22 83 93 245 107 245 4 0 25 -33 45 -73z
m-6197 -72 c154 -75 245 -248 245 -468 0 -207 -71 -409 -217 -617 -69 -97
-268 -291 -333 -323 -89 -44 -96 -37 -39 39 94 125 190 350 224 525 16 85 20
216 7 235 -4 6 -43 13 -87 16 -179 12 -293 123 -303 295 -6 106 16 163 92 239
80 80 120 94 251 91 88 -2 108 -6 160 -32z m10028 -2674 c119 -46 221 -175
248 -314 24 -118 -22 -260 -115 -353 -163 -162 -429 -163 -590 -1 -187 187
-159 480 61 629 80 55 131 68 243 64 68 -2 111 -9 153 -25z m-4413 -764 c0
-846 5 -948 55 -1241 117 -680 443 -1410 928 -2081 316 -436 739 -886 1177
-1252 504 -422 1072 -768 1602 -977 90 -35 200 -76 246 -91 l82 -27 0 -136 c0
-285 -37 -582 -111 -894 l-30 -127 -67 25 c-225 85 -611 267 -858 404 -1418
791 -2518 1987 -2959 3220 -80 222 -84 198 -14 -87 273 -1117 1059 -2206 2231
-3088 448 -337 1017 -673 1439 -850 35 -15 66 -29 67 -30 2 -2 -20 -49 -48
-104 -98 -190 -246 -396 -403 -558 l-51 -53 -115 62 c-1497 792 -2674 2050
-3118 3332 -33 98 -53 136 -53 106 0 -8 16 -82 35 -165 176 -756 587 -1509
1195 -2190 201 -225 545 -553 795 -758 234 -192 602 -454 852 -608 40 -24 73
-46 73 -49 0 -27 -510 -307 -700 -384 l-64 -26 -34 24 c-19 13 -95 73 -170
132 -541 429 -1034 955 -1379 1469 -224 335 -432 743 -548 1080 -70 200 -71
155 -4 -119 233 -946 818 -1849 1739 -2684 25 -22 43 -42 40 -44 -3 -3 -138
-54 -300 -115 -162 -61 -310 -117 -329 -125 l-33 -13 -50 55 c-472 522 -846
1130 -1059 1725 -74 207 -76 176 -9 -100 135 -552 392 -1092 771 -1622 60 -84
109 -155 109 -157 0 -3 -51 -30 -112 -61 -416 -209 -679 -492 -771 -830 -23
-82 -47 -247 -47 -317 l0 -58 -190 0 -190 0 0 56 c0 74 -25 243 -49 324 -100
350 -343 610 -777 830 -54 28 -99 52 -102 55 -2 2 25 45 62 94 399 544 672
1106 815 1681 69 274 66 312 -8 105 -200 -560 -541 -1128 -985 -1641 -97 -112
-122 -135 -140 -131 -24 6 -639 239 -646 245 -3 2 15 22 40 44 473 431 809
816 1103 1264 306 467 517 939 636 1420 67 274 66 319 -4 119 -311 -900 -991
-1800 -1920 -2544 -77 -61 -156 -123 -176 -137 l-36 -24 -69 29 c-104 43 -235
107 -358 173 -113 61 -336 199 -336 208 0 3 62 43 137 90 845 527 1610 1253
2102 1993 318 478 541 971 661 1461 68 278 64 311 -10 101 -451 -1278 -1625
-2528 -3111 -3314 l-115 -61 -51 53 c-157 162 -305 368 -403 558 -28 55 -50
102 -48 104 1 1 32 15 67 30 426 178 974 501 1426 841 1181 886 1970 1974
2244 3095 70 287 66 312 -14 89 -411 -1148 -1391 -2266 -2680 -3057 -355 -218
-806 -442 -1137 -567 l-67 -25 -30 127 c-74 312 -111 614 -111 902 l0 128 119
40 c704 242 1525 789 2215 1476 1023 1020 1650 2192 1746 3266 6 67 10 442 10
893 l0 777 190 0 190 0 0 -783z"/>
</g>
</svg>
